<svg width="64" height="64" viewBox="0 0 64 64" fill="none" xmlns="http://www.w3.org/2000/svg">
<g clip-path="url(#clip0_2368_4778)">
<path d="M40 29.3333V29.3599" stroke="#A21CAF" stroke-width="4" stroke-linecap="round" stroke-linejoin="round"/>
<path d="M42.6667 8V18.1413C45.967 20.051 48.4797 23.0732 49.7547 26.6667H53.3307C54.0379 26.6667 54.7162 26.9476 55.2163 27.4477C55.7164 27.9478 55.9974 28.6261 55.9974 29.3333V34.6667C55.9974 35.3739 55.7164 36.0522 55.2163 36.5523C54.7162 37.0524 54.0379 37.3333 53.3307 37.3333H49.752C48.8549 39.8677 47.3344 42.1356 45.3307 43.928V49.3333C45.3307 50.3942 44.9093 51.4116 44.1591 52.1618C43.409 52.9119 42.3916 53.3333 41.3307 53.3333C40.2698 53.3333 39.2524 52.9119 38.5023 52.1618C37.7521 51.4116 37.3307 50.3942 37.3307 49.3333V47.7787C36.4495 47.9263 35.5575 48.0003 34.664 48H23.9973C23.1039 48.0003 22.2119 47.9263 21.3307 47.7787V49.3333C21.3307 50.3942 20.9093 51.4116 20.1591 52.1618C19.409 52.9119 18.3916 53.3333 17.3307 53.3333C16.2698 53.3333 15.2524 52.9119 14.5023 52.1618C13.7521 51.4116 13.3307 50.3942 13.3307 49.3333V44L13.3334 43.928C10.9174 41.7681 9.21432 38.9254 8.44946 35.7763C7.6846 32.6271 7.89404 29.32 9.05005 26.2925C10.2061 23.265 12.2542 20.6599 14.9233 18.822C17.5924 16.9841 20.7567 16 23.9973 16H30.664L42.664 8H42.6667Z" stroke="#A21CAF" stroke-width="4" stroke-linecap="round" stroke-linejoin="round"/>
</g>
<defs>
<clipPath id="clip0_2368_4778">
<rect width="64" height="64" fill="white"/>
</clipPath>
</defs>
</svg>
