<svg width="64" height="64" viewBox="0 0 64 64" fill="none" xmlns="http://www.w3.org/2000/svg">
<g clip-path="url(#clip0_2368_13641)">
<path d="M8 18.6667H16" stroke="#A21CAF" stroke-width="4" stroke-linecap="round" stroke-linejoin="round"/>
<path d="M8 29.3333H13.3333" stroke="#A21CAF" stroke-width="4" stroke-linecap="round" stroke-linejoin="round"/>
<path d="M24.0533 23.4694L22.4533 39.4694C22.3792 40.2108 22.4612 40.9596 22.6942 41.6673C22.9271 42.3751 23.3058 43.0262 23.8057 43.5787C24.3057 44.1312 24.9159 44.5728 25.597 44.875C26.278 45.1772 27.0149 45.3334 27.76 45.3334H49.04C50.3626 45.3334 51.638 44.8419 52.6186 43.9544C53.5992 43.0669 54.2151 41.8468 54.3467 40.5307L55.9467 24.5307C56.0208 23.7893 55.9388 23.0406 55.7058 22.3328C55.4729 21.625 55.0943 20.9739 54.5943 20.4215C54.0943 19.869 53.4841 19.4274 52.8031 19.1252C52.122 18.8229 51.3851 18.6668 50.64 18.6667H29.36C28.0374 18.6668 26.762 19.1583 25.7814 20.0457C24.8008 20.9332 24.1849 22.1534 24.0533 23.4694Z" stroke="#A21CAF" stroke-width="4" stroke-linecap="round" stroke-linejoin="round"/>
<path d="M26.1334 20L34.0854 28.7467C34.792 29.5241 35.6449 30.1548 36.5953 30.6026C37.5457 31.0505 38.575 31.3067 39.6245 31.3567C40.6739 31.4067 41.7229 31.2496 42.7116 30.8941C43.7003 30.5387 44.6093 29.9921 45.3867 29.2853L54.1334 21.3333" stroke="#A21CAF" stroke-width="4" stroke-linecap="round" stroke-linejoin="round"/>
</g>
<defs>
<clipPath id="clip0_2368_13641">
<rect width="64" height="64" fill="white"/>
</clipPath>
</defs>
</svg>
