<svg width="65" height="64" viewBox="0 0 65 64" fill="none" xmlns="http://www.w3.org/2000/svg">
<g clip-path="url(#clip0_2368_19768)">
<path d="M14 13.3333V55.9999" stroke="#A21CAF" stroke-width="4" stroke-linecap="round" stroke-linejoin="round"/>
<path d="M51.3333 13.3333V37.3333" stroke="#A21CAF" stroke-width="4" stroke-linecap="round" stroke-linejoin="round"/>
<path d="M14 13.3334C16.4924 10.8904 19.8433 9.52197 23.3333 9.52197C26.8234 9.52197 30.1743 10.8904 32.6667 13.3334C35.159 15.7764 38.5099 17.1448 42 17.1448C45.49 17.1448 48.8409 15.7764 51.3333 13.3334" stroke="#A21CAF" stroke-width="4" stroke-linecap="round" stroke-linejoin="round"/>
<path d="M14 37.3334C16.4924 34.8904 19.8433 33.522 23.3333 33.522C26.8234 33.522 30.1743 34.8904 32.6667 37.3334C35.159 39.7764 38.5099 41.1448 42 41.1448C45.49 41.1448 48.8409 39.7764 51.3333 37.3334" stroke="#A21CAF" stroke-width="4" stroke-linecap="round" stroke-linejoin="round"/>
</g>
<defs>
<clipPath id="clip0_2368_19768">
<rect width="64" height="64" fill="white" transform="translate(0.666656)"/>
</clipPath>
</defs>
</svg>
